<?xml version="1.0" standalone="no"?><!DOCTYPE svg PUBLIC "-//W3C//DTD SVG 1.1//EN" "http://www.w3.org/Graphics/SVG/1.1/DTD/svg11.dtd"><svg t="1530243430275" class="icon" style="" viewBox="0 0 1024 1024" version="1.1" xmlns="http://www.w3.org/2000/svg" p-id="1305" xmlns:xlink="http://www.w3.org/1999/xlink" width="20" height="20"><defs><style type="text/css"></style></defs><path d="M405.106 628.723c-53.867 32.528-61.858-18.264-61.858-18.264l-67.512-170.643c-25.974-81.090 22.484-36.563 22.484-36.563s41.58 34.072 73.136 54.836c31.539 20.764 67.493 6.095 67.493 6.095l441.359-220.663c-81.429-109.755-215.947-181.52-368.231-181.52-248.527 0-449.975 190.982-449.975 426.58 0 135.519 66.705 256.131 170.605 334.3l-18.735 116.675c0 0-9.136 34.057 22.522 18.262 21.571-10.77 76.563-49.372 109.3-72.86 51.464 19.418 107.532 30.203 166.31 30.203 248.504 0 449.993-190.978 449.993-426.578 0-68.243-16.974-132.689-47.052-189.893-140.617 91.645-467.688 304.625-509.838 330.034v0 0z" p-id="1306" fill="#7acc66"></path></svg>